<svg xmlns="http://www.w3.org/2000/svg" width="61.116" height="61.113" viewBox="0 0 61.116 61.113">
  <g id="Group_39" data-name="Group 39" transform="translate(-171 -28)">
    <g id="Component_14_1" data-name="Component 14 – 1" transform="translate(171 28)">
      <text id="Jm" transform="translate(31.304 39)" fill="#fff" font-size="20" font-family="PlayfairDisplay-Bold, Playfair Display" font-weight="700"><tspan x="-12.54" y="0">Jm</tspan></text>
      <path id="Subtraction_1" data-name="Subtraction 1" d="M30.764,62.6a20.188,20.188,0,0,1-8.637-1.951,19.8,19.8,0,0,1-7.136-5.737l-4.457-5.7a27.79,27.79,0,0,0,9.382,7.545,27.492,27.492,0,0,0,28.81-2.817l-5.662,4.424a19.916,19.916,0,0,1-12.3,4.241Zm18.574-9.143v0a27.8,27.8,0,0,0,7.424-9.29,27.492,27.492,0,0,0-2.827-28.807l4.428,5.668A19.982,19.982,0,0,1,54.915,49.1ZM10.074,48.621,5.73,43.062A19.983,19.983,0,0,1,9.177,14.99l5.7-4.457a27.786,27.786,0,0,0-7.545,9.382A27.492,27.492,0,0,0,10.075,48.62ZM53.465,14.763a27.8,27.8,0,0,0-9.291-7.429,27.491,27.491,0,0,0-28.82,2.829l5.675-4.434a19.915,19.915,0,0,1,12.3-4.241,20.192,20.192,0,0,1,8.638,1.951A19.8,19.8,0,0,1,49.1,9.176l4.364,5.586Z" transform="translate(-1.488 -1.489)" fill="#fff"/>
    </g>
  </g>
</svg>
